<svg xmlns="http://www.w3.org/2000/svg" width="54" height="57" fill="none"><path fill="#FF4361" d="M28.227 57h-.137a25.106 25.106 0 0 1-5.693-.658.948.948 0 0 1-.706-1.138.934.934 0 0 1 1.126-.713 23.46 23.46 0 0 0 4.488.586V53.2a.939.939 0 1 1 1.879 0v1.87a23.112 23.112 0 0 0 9.825-2.7l-.926-1.622a.955.955 0 0 1 .692-1.42.931.931 0 0 1 .935.467l.923 1.618a23.808 23.808 0 0 0 7.3-7.384l-1.6-.934a.956.956 0 0 1 .225-1.742.935.935 0 0 1 .714.095l1.6.937a23.777 23.777 0 0 0 2.677-10.089H49.7a.95.95 0 0 1 0-1.9h1.856a23.768 23.768 0 0 0-2.677-10.087l-1.6.936a.924.924 0 0 1-.94 0 .955.955 0 0 1 0-1.647l1.599-.933a23.81 23.81 0 0 0-7.3-7.385l-.923 1.618a.934.934 0 0 1-1.284.348.956.956 0 0 1-.345-1.3l.927-1.622a23.108 23.108 0 0 0-9.825-2.7v1.871a.94.94 0 0 1-1.88 0V7.618c-.276.013-.56.031-.868.054l-1.009.078c-.878.103-1.75.254-2.612.454a.937.937 0 0 1-1.126-.714.948.948 0 0 1 .706-1.138c.998-.23 2.01-.4 3.029-.509v-1.1h-1.409a2.375 2.375 0 0 1 0-4.749h8.457a2.375 2.375 0 0 1 0 4.75h-1.409v1.131A25 25 0 0 1 40.72 9.11c.02.011.041.01.06.021.019.012.029.03.047.042a25.468 25.468 0 0 1 4.519 3.388l2.019-2.039-1.329-1.345 3.987-4.03 3.986 4.03-3.986 4.03-1.329-1.343-2.018 2.04a25.79 25.79 0 0 1 3.35 4.568c.013.017.03.03.041.047.011.018.01.041.02.061a25.8 25.8 0 0 1 0 25.53c-.01.02-.009.04-.02.06-.011.018-.039.048-.057.074a25.7 25.7 0 0 1-9.184 9.273c-.018.012-.028.03-.047.041a.855.855 0 0 1-.088.038 25 25 0 0 1-12.422 3.394h-.023c-.009 0-.013.011-.019.011ZM48.688 9.186l1.33 1.345 1.328-1.345-1.328-1.344-1.33 1.344Zm-19.5-3.46v-2.87h3.289a.475.475 0 0 0 0-.95H24.02a.475.475 0 1 0 0 .95h3.28v2.87c.113-.006.216 0 .325-.008.154 0 .308-.013.462-.013h.153c.304-.005.616.001.943.015l.005.005ZM13.213 48.453a.95.95 0 1 1 0-1.9h6.577a.95.95 0 0 1 0 1.9h-6.577Zm-5.638-6.65a.95.95 0 0 1 0-1.9h12.216a.95.95 0 1 1 0 1.9H7.575Zm18.835-6.692a3.408 3.408 0 0 1 .4-5.13l12.165-8.9a.935.935 0 0 1 1.215.1.958.958 0 0 1 .1 1.227l-8.8 12.3a3.334 3.334 0 0 1-4 1.137 3.324 3.324 0 0 1-1.085-.739l.005.005Zm1.5-3.595a1.485 1.485 0 0 0 .979 2.682 1.466 1.466 0 0 0 1.075-.608l5.367-7.5-7.421 5.426ZM1.934 35.153a.95.95 0 0 1 0-1.9h17.854a.95.95 0 1 1 0 1.9H1.934Zm3.759-6.649a.95.95 0 0 1 0-1.9h14.095a.95.95 0 0 1 0 1.9H5.693Zm4.7-6.65a.95.95 0 1 1 0-1.9h9.4a.95.95 0 1 1 0 1.9h-9.4Zm4.7-6.65a.95.95 0 1 1 0-1.9h4.7a.95.95 0 0 1 0 1.9h-4.7Z"/></svg>