<svg xmlns="http://www.w3.org/2000/svg" width="40" height="37" fill="none"><path fill="#5856D6" d="m25.684 36.618-3.316-3.38-3.317 3.38a1.258 1.258 0 0 1-1.8 0 1.317 1.317 0 0 1 0-1.84l3.317-3.38-3.317-3.379a1.317 1.317 0 0 1 0-1.84 1.259 1.259 0 0 1 1.8 0l3.317 3.38 3.316-3.38a1.258 1.258 0 0 1 1.8 0 1.32 1.32 0 0 1 0 1.84l-3.316 3.379 3.316 3.38a1.318 1.318 0 0 1 0 1.84 1.258 1.258 0 0 1-1.8 0ZM1.119 30.78a3.771 3.771 0 1 1 3.77 3.84 3.806 3.806 0 0 1-3.769-3.84h-.001Zm3.772-5.98c-.26 0-.52.018-.778.054a25.074 25.074 0 0 1 3.91-8.1 22.212 22.212 0 0 1 15.475-8.99l-2.729-2.418a1.317 1.317 0 0 1 .265-2.145 1.26 1.26 0 0 1 1.409.182l5.145 4.56a1.318 1.318 0 0 1 .126 1.835l-4.473 5.245a1.257 1.257 0 0 1-1.8.128 1.317 1.317 0 0 1-.126-1.834l2.543-2.982a19.5 19.5 0 0 0-13.727 7.89 22.763 22.763 0 0 0-3.427 6.869 5.74 5.74 0 0 0-1.812-.294h-.001ZM32.459 8.67a3.77 3.77 0 1 1 3.77 3.84 3.806 3.806 0 0 1-3.769-3.84h-.001ZM8.811 10.82 5.494 7.438l-3.316 3.38a1.261 1.261 0 0 1-1.8 0 1.318 1.318 0 0 1 0-1.84l3.317-3.38L.378 2.22a1.318 1.318 0 0 1 0-1.84 1.258 1.258 0 0 1 1.8 0l3.316 3.38L8.811.38a1.258 1.258 0 0 1 1.8 0 1.32 1.32 0 0 1 0 1.84L7.294 5.6 10.61 8.98a1.318 1.318 0 0 1 0 1.84 1.259 1.259 0 0 1-1.8 0h.001Z"/></svg>