<svg xmlns="http://www.w3.org/2000/svg" width="34" height="40" fill="none"><path fill="#3DABDD" d="M6.653 40a.923.923 0 0 1-.919-.926v-2.19a2.77 2.77 0 0 1 2.757-2.778H10.2v-4.247a.923.923 0 0 1 .7-.9h.012a4.226 4.226 0 0 0 3.241-4.524 11.605 11.605 0 0 1-5.322-5.059 19.699 19.699 0 0 1-1.24-2.506A14.975 14.975 0 0 1 .035 6.176a2.879 2.879 0 0 1 2.835-3.335h2.775v-.874A1.956 1.956 0 0 1 7.593.005h18.814a1.957 1.957 0 0 1 1.948 1.962v.874h2.774a2.88 2.88 0 0 1 2.835 3.335 14.975 14.975 0 0 1-7.553 10.694c-.354.864-.77 1.701-1.242 2.506a11.68 11.68 0 0 1-5.233 5.021 4.223 4.223 0 0 0 3.238 4.562h.011a.923.923 0 0 1 .707.9v4.247h1.7a2.77 2.77 0 0 1 2.758 2.777v2.191a.923.923 0 0 1-.92.926H6.653Zm.92-3.118v1.266h18.943v-1.266a.923.923 0 0 0-.919-.925H8.491a.923.923 0 0 0-.919.924v.001Zm4.461-2.777h10.021v-3.321H12.034v3.321Zm3.03-5.99a6.181 6.181 0 0 1-.62.817h5.209a6.118 6.118 0 0 1-1.579-4.008A7.096 7.096 0 0 1 17 25c-.33 0-.66-.023-.988-.068a6.053 6.053 0 0 1-.948 3.182v.001ZM7.484 1.962v4.43a24.066 24.066 0 0 0 2.927 12.034c1.8 3.05 4.139 4.729 6.589 4.729s4.79-1.678 6.589-4.729a24.065 24.065 0 0 0 2.927-12.035v-4.43a.11.11 0 0 0-.068-.102.11.11 0 0 0-.042-.008H7.593a.11.11 0 0 0-.109.11Zm20.87 4.43a29.28 29.28 0 0 1-.98 7.623 13.13 13.13 0 0 0 4.774-8.141 1 1 0 0 0-.229-.817 1.035 1.035 0 0 0-.792-.37h-2.774l.001 1.704ZM2.079 5.055a1 1 0 0 0-.229.818 13.13 13.13 0 0 0 4.775 8.14c-.66-2.486-.99-5.05-.979-7.623v-1.7H2.871a1.034 1.034 0 0 0-.791.364h-.001Zm11.472 11.056a.927.927 0 0 1-.365-.905l.473-2.783-2.007-1.97a.93.93 0 0 1 .51-1.58l2.773-.406 1.24-2.531a.916.916 0 0 1 1.649 0l1.239 2.531 2.773.406a.927.927 0 0 1 .509 1.58l-2.006 1.97.473 2.783a.928.928 0 0 1-.365.905.917.917 0 0 1-.967.071L17 14.87l-2.48 1.314a.914.914 0 0 1-.967-.07h-.002Zm3.875-3.11 1.26.668-.241-1.413a.93.93 0 0 1 .265-.819l1.02-1-1.408-.206a.917.917 0 0 1-.692-.506L17 8.44l-.63 1.286a.917.917 0 0 1-.692.506l-1.409.206 1.02 1a.93.93 0 0 1 .264.82l-.24 1.412 1.26-.667a.913.913 0 0 1 .855 0h-.002Z"/></svg>