<svg xmlns="http://www.w3.org/2000/svg" width="37" height="37" fill="none"><path fill="#40975F" d="M16.866 37a2.284 2.284 0 0 1-2.257-1.91l-.433-2.6c-.843-.26-1.66-.594-2.443-1l-2.172 1.545a2.272 2.272 0 0 1-2.938-.247l-2.3-2.3a2.28 2.28 0 0 1-.247-2.945l1.523-2.118a14.251 14.251 0 0 1-1.058-2.513l-2.628-.447A2.285 2.285 0 0 1 0 20.2v-3.253a2.283 2.283 0 0 1 1.91-2.257l2.566-.433c.262-.873.606-1.72 1.028-2.528L3.959 9.557a2.287 2.287 0 0 1 .247-2.945l2.311-2.3a2.284 2.284 0 0 1 2.945-.247l2.126 1.53A14.18 14.18 0 0 1 14.1 4.538l.448-2.628A2.284 2.284 0 0 1 16.8 0h3.254a2.284 2.284 0 0 1 2.257 1.909l.432 2.566c.904.272 1.78.632 2.613 1.075l2.149-1.53a2.27 2.27 0 0 1 2.937.246l2.3 2.3a2.28 2.28 0 0 1 .247 2.946l-1.53 2.141c.425.806.774 1.649 1.043 2.52l2.6.44a2.255 2.255 0 0 1 1.894 2.256v3.254a2.284 2.284 0 0 1-1.909 2.257l-2.6.433c-.268.87-.617 1.714-1.043 2.52l1.53 2.148a2.287 2.287 0 0 1-.247 2.945l-2.3 2.3a2.284 2.284 0 0 1-2.945.247l-2.141-1.53c-.806.425-1.65.774-2.52 1.043l-.44 2.6a2.284 2.284 0 0 1-2.257 1.91L16.866 37Zm-4.668-7.621c.994.572 2.06 1.01 3.169 1.3a1.036 1.036 0 0 1 .765.834l.541 3.247a.2.2 0 0 0 .2.169h3.254a.2.2 0 0 0 .2-.169l.549-3.247a1.026 1.026 0 0 1 .765-.834 12.36 12.36 0 0 0 3.239-1.345 1.046 1.046 0 0 1 1.136.047l2.682 1.909a.192.192 0 0 0 .196.024.2.2 0 0 0 .067-.046l2.3-2.3a.21.21 0 0 0 .023-.263l-1.909-2.69a1.042 1.042 0 0 1-.046-1.135c.6-1.01 1.053-2.1 1.345-3.239a1.04 1.04 0 0 1 .835-.766l3.246-.541a.2.2 0 0 0 .17-.2h.007V16.88a.199.199 0 0 0-.17-.2l-3.246-.549a1.023 1.023 0 0 1-.834-.765 12.399 12.399 0 0 0-1.345-3.238 1.046 1.046 0 0 1 .047-1.137l1.909-2.68a.21.21 0 0 0-.023-.265l-2.3-2.3a.208.208 0 0 0-.147-.062.23.23 0 0 0-.116.04L26.04 7.64a1.043 1.043 0 0 1-1.136.047 12.514 12.514 0 0 0-3.316-1.36 1.048 1.048 0 0 1-.773-.843l-.541-3.223a.2.2 0 0 0-.2-.17H16.82a.2.2 0 0 0-.2.17l-.556 3.27a1.06 1.06 0 0 1-.766.834 12.241 12.241 0 0 0-3.23 1.361 1.058 1.058 0 0 1-1.144-.047l-2.667-1.9a.2.2 0 0 0-.263.023l-2.3 2.3a.211.211 0 0 0-.022.264l1.924 2.7a1.035 1.035 0 0 1 .054 1.13 12.324 12.324 0 0 0-1.321 3.246 1.045 1.045 0 0 1-.843.772l-3.223.54a.2.2 0 0 0-.17.201v3.253a.2.2 0 0 0 .17.2l3.27.556a1.06 1.06 0 0 1 .835.766 12.237 12.237 0 0 0 1.36 3.23 1.06 1.06 0 0 1-.046 1.145l-1.9 2.666a.209.209 0 0 0 .023.263l2.3 2.3a.207.207 0 0 0 .147.061.236.236 0 0 0 .116-.038l2.705-1.925c.175-.127.385-.194.6-.193.185 0 .366.048.527.139h-.002ZM10.52 18.496a7.984 7.984 0 1 1 15.968.004 7.984 7.984 0 0 1-15.968-.005v.001Zm2.087 0a5.9 5.9 0 1 0 11.8.002 5.9 5.9 0 0 0-11.8-.003v.001Z"/></svg>