<svg xmlns="http://www.w3.org/2000/svg" width="30" height="20" fill="none"><path fill="#fff" fill-rule="evenodd" d="M28.433 6.288a.84.84 0 0 1-.022.248l-1.826 7.332a.832.832 0 0 1-.8.631l-10.954.056H3.873a.83.83 0 0 1-.806-.632l-1.825-7.36a.836.836 0 0 1-.022-.255 1.751 1.751 0 0 1 .523-3.42c.96 0 1.742.786 1.742 1.751A1.75 1.75 0 0 1 2.85 5.99l2.286 2.312c.578.585 1.38.92 2.2.92.969 0 1.893-.463 2.476-1.237l3.756-4.998A1.749 1.749 0 0 1 14.8 0a1.749 1.749 0 0 1 1.258 2.957l.004.004 3.729 5.012a3.11 3.11 0 0 0 2.482 1.249c.828 0 1.606-.324 2.191-.911l2.3-2.31a1.748 1.748 0 0 1 1.092-3.112 1.748 1.748 0 0 1 .578 3.399Zm-2.026 10.878a.832.832 0 0 0-.83-.834H4.113a.832.832 0 0 0-.83.834v2c0 .46.372.833.83.833h21.465c.459 0 .83-.373.83-.834v-2Z" clip-rule="evenodd"/></svg>