<svg xmlns="http://www.w3.org/2000/svg" width="25" height="21" fill="none"><path fill="#FF4550" fill-rule="evenodd" d="M15.217 14.963a.83.83 0 0 0 .252-.604v-2.144h8.906v6.433c0 .59-.208 1.094-.623 1.514a2.03 2.03 0 0 1-1.497.63H2.744a2.03 2.03 0 0 1-1.497-.63 2.076 2.076 0 0 1-.623-1.514v-6.433H9.53v2.144a.83.83 0 0 0 .252.604c.168.169.367.254.597.254h4.24c.23 0 .43-.085.597-.255Zm-1.02-2.748h-3.394v1.715h3.394v-1.715Zm9.555-7.948a2.029 2.029 0 0 0-1.497-.63h-4.666V1.493c0-.358-.123-.661-.37-.912a1.222 1.222 0 0 0-.902-.375H8.683c-.353 0-.654.126-.901.375-.248.25-.371.554-.371.912v2.144H2.746c-.584 0-1.083.21-1.498.63-.416.42-.623.924-.623 1.514v5.147h23.75V5.781c0-.59-.208-1.094-.623-1.514Zm-7.86-.63H9.108V1.921h6.786v1.716Z" clip-rule="evenodd"/></svg>