<svg xmlns="http://www.w3.org/2000/svg" width="30" height="20" fill="none"><path fill="#FE5868" fill-rule="evenodd" d="M28.39 6.221a.833.833 0 0 1-.023.246l-1.806 7.256a.823.823 0 0 1-.793.625l-10.84.055H4.082a.822.822 0 0 1-.797-.625L1.479 6.493a.827.827 0 0 1-.022-.252 1.733 1.733 0 0 1 .518-3.383 1.733 1.733 0 0 1 1.095 3.07l2.262 2.287a3.08 3.08 0 0 0 2.176.91A3.08 3.08 0 0 0 9.96 7.901l3.718-4.946a1.73 1.73 0 0 1 1.219-2.956 1.73 1.73 0 0 1 1.245 2.926l.004.004 3.69 4.96a3.078 3.078 0 0 0 2.457 1.236c.819 0 1.59-.32 2.168-.901l2.277-2.286a1.73 1.73 0 0 1 1.08-3.08 1.73 1.73 0 0 1 .572 3.363Zm-2.006 10.766a.823.823 0 0 0-.82-.825H4.32a.823.823 0 0 0-.822.825v1.979c0 .456.368.825.822.825h21.243a.823.823 0 0 0 .821-.825v-1.98Z" clip-rule="evenodd"/></svg>